# xmcd
#
# Track frame offsets: 
#        150
#        15775
#        33862
#        48137
#        63425
#        76350
#        94475
#        108150
#        124200
#        139662
#        152662
#        169737
#        181400
#        195725
#        208987
#        226487
#        240050
#        246462
#        264812
#        283587
#
# Disc length: 3998 seconds
#
# Revision: 1
# Processed by: cddbd v1.5.2PL0 Copyright (c) Steve Scherf et al.
# Submitted via: ExactAudioCopyFreeDBPlugin 1.0
#
DISCID=060f9c14
DTITLE=蔡琴 - 金装蔡琴经典金曲精选
DYEAR=1996
DGENRE=Easy Listening
TTITLE0=我有一段情
TTITLE1=恰似你的溫柔
TTITLE2=月光小夜曲
TTITLE3=綠島小夜曲
TTITLE4=情人的眼淚
TTITLE5=明日之歌
TTITLE6=藍色的夢
TTITLE7=未識綺羅香
TTITLE8=重相逢
TTITLE9=情人山
TTITLE10=懷念
TTITLE11=初戀
TTITLE12=秦淮河畔
TTITLE13=出塞歌
TTITLE14=我曾經來過
TTITLE15=昨夜之燈
TTITLE16=往事難忘
TTITLE17=飄零的落花
TTITLE18=小窗相思
TTITLE19=船
EXTD=
EXTT0=
EXTT1=
EXTT2=
EXTT3=
EXTT4=
EXTT5=
EXTT6=
EXTT7=
EXTT8=
EXTT9=
EXTT10=
EXTT11=
EXTT12=
EXTT13=
EXTT14=
EXTT15=
EXTT16=
EXTT17=
EXTT18=
EXTT19=
PLAYORDER=
